<?xml version="1.0" standalone="no"?>
<!DOCTYPE svg PUBLIC "-//W3C//DTD SVG 20010904//EN"
 "http://www.w3.org/TR/2001/REC-SVG-20010904/DTD/svg10.dtd">
<svg version="1.0" xmlns="http://www.w3.org/2000/svg"
 width="260.000000pt" height="260.000000pt" viewBox="0 0 260.000000 260.000000"
 preserveAspectRatio="xMidYMid meet">
<metadata>
Created by potrace 1.14, written by Peter Selinger 2001-2017
</metadata>
<g transform="translate(0.000000,260.000000) scale(0.100000,-0.100000)"
fill="#000000" stroke="none">
<path d="M362 1928 l3 -313 310 0 310 0 0 310 0 310 -313 3 -312 2 2 -312z
m533 -3 l0 -220 -220 0 -220 0 -3 223 -2 222 222 -2 223 -3 0 -220z"/>
<path d="M542 1928 l3 -133 130 0 130 0 0 130 0 130 -133 3 -133 3 3 -133z"/>
<path d="M1080 2150 l0 -90 46 0 45 0 -3 -42 c-3 -43 -3 -43 -45 -46 l-43 -3
0 -45 0 -44 130 0 130 0 0 -89 0 -90 -42 -3 -41 -3 2 -87 2 -88 -45 0 -45 0
-3 88 -3 87 -42 3 -43 3 0 -90 0 -91 -135 0 -136 0 3 -87 3 -88 43 -3 c42 -3
42 -3 42 -43 l0 -39 -90 0 -90 0 0 40 c0 22 -3 40 -7 41 -5 0 -24 1 -43 2 -34
2 -35 1 -38 -40 -3 -42 -3 -42 -45 -45 -42 -3 -42 -3 -45 -45 l-3 -42 -87 -3
-87 -3 -3 -42 -3 -43 135 0 136 0 0 90 0 90 45 0 45 0 0 -45 0 -45 90 0 90 0
0 -45 0 -44 88 -3 87 -3 3 -132 3 -132 42 -3 c42 -3 42 -3 42 -43 0 -40 0 -40
-42 -43 l-43 -3 0 -90 0 -90 43 3 c42 3 42 3 45 46 3 42 3 42 42 42 42 0 53
-16 47 -65 -2 -17 5 -20 40 -23 42 -3 42 -3 45 -45 3 -42 3 -42 45 -45 42 -3
42 -3 45 -45 3 -42 3 -42 45 -45 l42 -3 3 88 3 88 43 3 42 3 0 45 0 45 -87 -3
-88 -3 -3 -42 -3 -43 -45 0 -45 0 1 123 c1 67 1 128 1 135 -1 7 -16 12 -39 12
-21 0 -41 2 -43 4 -3 3 -3 23 -1 45 l4 41 129 0 129 0 0 45 0 45 45 0 44 0 3
-87 3 -88 175 -5 175 -5 3 -42 3 -42 -43 -3 c-43 -3 -43 -3 -46 -45 l-3 -43
45 0 46 0 0 -45 0 -45 45 0 45 0 0 45 0 45 46 0 45 0 -3 43 c-3 42 -3 42 -46
45 l-43 3 3 42 3 42 88 3 88 3 -3 42 -3 42 -87 3 -87 3 -3 42 c-3 42 -3 42
-45 45 l-42 3 -3 132 -3 132 -30 2 c-16 0 -36 2 -42 2 -9 1 -13 25 -13 86 l0
85 45 0 45 0 0 -39 c0 -42 11 -51 61 -51 27 0 29 -2 29 -40 0 -22 3 -40 8 -40
4 -1 43 -1 87 -2 l80 -1 3 131 3 132 -91 0 -90 0 0 -45 0 -45 -45 0 -45 0 0
45 0 45 -45 0 -45 0 0 -45 0 -45 -44 0 -45 0 -3 -42 -3 -43 -75 -2 c-41 -1
-80 -2 -87 -2 -7 -1 -13 -19 -15 -43 -3 -41 -5 -43 -31 -40 -38 5 -57 -14 -57
-54 0 -34 -1 -34 -45 -34 l-45 0 0 79 c0 86 5 94 55 95 l30 1 3 222 2 222 -42
3 c-43 3 -43 3 -46 46 l-3 42 45 0 46 0 0 90 0 90 -45 0 -45 0 0 44 0 45 -42
3 c-43 3 -43 3 -43 43 l0 40 -132 3 -133 3 0 -91z m178 -47 l3 -43 85 0 84 0
0 -90 0 -90 -46 0 -46 0 4 43 3 42 -42 3 c-45 3 -46 5 -43 60 2 32 1 32 -44
32 l-46 0 0 46 0 45 43 -3 c42 -3 42 -3 45 -45z m172 -448 l0 -45 -39 0 c-42
0 -51 11 -51 61 0 28 2 29 45 29 l45 0 0 -45z m-262 -307 l-3 -173 -42 -3
c-43 -3 -43 -3 -43 30 0 43 -15 58 -57 58 -32 0 -33 -1 -33 -45 l0 -45 -45 0
-45 0 0 45 0 45 45 0 45 0 0 40 c0 42 -2 43 -57 40 -33 -2 -33 -1 -33 44 l0
46 74 0 c98 0 106 4 106 51 l0 39 45 0 45 0 -2 -172z m176 136 c0 -41 -10 -54
-43 -54 -37 0 -48 14 -43 56 4 34 5 35 45 32 38 -3 41 -5 41 -34z m804 -96
c-3 -43 -3 -43 -45 -46 l-43 -3 0 45 0 46 46 0 45 0 -3 -42z m-812 -50 c10 -7
11 -59 2 -74 -7 -10 -59 -11 -74 -2 -10 7 -11 59 -2 74 7 10 59 11 74 2z m452
-125 c3 -42 3 -42 45 -45 42 -3 42 -3 45 -45 l3 -43 -45 0 -46 0 0 -91 0 -90
-42 3 c-42 3 -43 4 -48 43 -5 39 -6 40 -47 43 l-43 3 0 84 c0 90 3 95 61 95
27 0 29 3 29 39 0 43 9 51 55 48 28 -2 30 -5 33 -44z m-358 -87 l0 -45 43 -3
c42 -3 42 -3 45 -46 l3 -43 -43 3 c-43 3 -43 3 -46 46 l-3 42 -45 0 -46 0 4
-42 3 -43 -43 -3 c-44 -3 -45 -5 -42 -59 2 -33 1 -33 -45 -33 l-46 0 3 88 3
87 83 3 82 3 0 32 c0 42 15 57 57 57 32 0 33 -1 33 -44z m630 -451 l0 -45 -45
0 -45 0 0 45 0 45 45 0 45 0 0 -45z"/>
<path d="M1700 1125 l0 -45 45 0 45 0 0 45 0 45 -45 0 -45 0 0 -45z"/>
<path d="M1615 2227 c-3 -7 -4 -147 -3 -312 l3 -300 310 0 310 0 3 313 2 312
-310 0 c-241 0 -312 -3 -315 -13z m533 -299 l-3 -223 -220 0 -220 0 -3 210
c-1 115 0 215 2 222 4 10 56 13 226 13 l220 0 -2 -222z"/>
<path d="M1794 2047 c-2 -7 -3 -67 -2 -133 l3 -119 130 0 130 0 3 133 3 132
-131 0 c-98 0 -132 -3 -136 -13z"/>
<path d="M362 1478 c3 -43 3 -43 43 -43 40 0 40 0 43 43 l3 42 -46 0 -46 0 3
-42z"/>
<path d="M542 1478 l3 -43 85 0 85 0 3 43 3 42 -91 0 -91 0 3 -42z"/>
<path d="M1617 1513 c-4 -3 -7 -21 -7 -39 0 -27 5 -35 24 -40 47 -11 61 -2 64
44 l3 42 -39 0 c-21 0 -42 -3 -45 -7z"/>
<path d="M364 1335 c-3 -7 -4 -28 -2 -47 3 -31 5 -33 38 -31 19 1 38 2 43 2 4
1 7 19 7 41 0 22 -3 40 -7 41 -5 0 -23 2 -41 4 -21 2 -35 -2 -38 -10z"/>
<path d="M2067 1164 c-4 -4 -7 -25 -7 -46 l0 -38 45 0 45 0 0 -45 0 -45 46 0
45 0 -3 43 c-3 42 -3 42 -45 45 -42 3 -42 3 -45 45 -3 40 -5 42 -38 45 -20 2
-39 0 -43 -4z"/>
<path d="M367 983 c-4 -3 -7 -145 -7 -315 l0 -308 313 2 312 3 0 310 0 310
-306 3 c-168 1 -308 -1 -312 -5z m528 -308 l0 -220 -222 -3 -223 -2 0 218 c0
120 3 222 7 226 4 3 104 5 222 4 l216 -3 0 -220z"/>
<path d="M547 804 c-4 -4 -7 -65 -7 -136 l0 -129 133 3 132 3 0 130 0 130
-126 3 c-69 1 -128 -1 -132 -4z"/>
<path d="M1434 796 c-3 -8 -4 -27 -2 -43 3 -25 7 -28 46 -31 l42 -3 0 45 0 46
-40 0 c-26 0 -43 -5 -46 -14z"/>
<path d="M1704 706 c-3 -8 -4 -27 -2 -43 3 -25 7 -28 46 -31 l42 -3 0 45 0 46
-40 0 c-26 0 -43 -5 -46 -14z"/>
<path d="M1704 527 c-3 -8 -4 -47 -2 -88 l3 -74 88 -3 87 -3 0 45 0 45 -42 3
c-43 3 -43 3 -46 46 -3 42 -3 42 -43 42 -24 0 -42 -5 -45 -13z"/>
<path d="M2157 533 c-4 -3 -7 -24 -7 -45 l0 -38 45 0 45 0 0 45 0 45 -38 0
c-21 0 -42 -3 -45 -7z"/>
<path d="M1080 405 l0 -46 88 3 87 3 0 40 0 40 -87 3 -88 3 0 -46z"/>
<path d="M1974 436 c-3 -8 -4 -27 -2 -43 3 -25 7 -28 46 -31 l42 -3 0 45 0 46
-40 0 c-26 0 -43 -5 -46 -14z"/>
</g>
</svg>
